HIERARCHY
ROOT Hips
{
  OFFSET 50.4504 84.1035 7.06329
  CHANNELS 6 Xposition Yposition Zposition Zrotation Xrotation Yrotation
  JOINT spine
  {
    OFFSET 0 5.95438 0.342407
    CHANNELS 3 Zrotation Xrotation Yrotation
    JOINT spine1
    {
      OFFSET 0 8.85602 0
      CHANNELS 3 Zrotation Xrotation Yrotation
      JOINT spine2
      {
        OFFSET 0 8.48567 0
        CHANNELS 3 Zrotation Xrotation Yrotation
        JOINT Neck
        {
          OFFSET 0 21.7863 1.0387
          CHANNELS 3 Zrotation Xrotation Yrotation
          JOINT Head
          {
            OFFSET 0 6.5822 0
            CHANNELS 3 Zrotation Xrotation Yrotation
            End Site
            {
              OFFSET 0 15.9326 -5.25436
            }
          }
        }
        JOINT RightShoulder
        {
          OFFSET -3.57307 9.16386 -0.497525
          CHANNELS 3 Zrotation Xrotation Yrotation
          JOINT RightArm
          {
            OFFSET 0 12.0192 0
            CHANNELS 3 Zrotation Xrotation Yrotation
            JOINT RightArmRoll
            {
              OFFSET 0 6.06754 0
              CHANNELS 3 Zrotation Xrotation Yrotation
              JOINT RightForeArm
              {
                OFFSET 0 17.6726 0
                CHANNELS 3 Zrotation Xrotation Yrotation
                JOINT RightForeArmRoll
                {
                  OFFSET 0 6.80872 0
                  CHANNELS 3 Zrotation Xrotation Yrotation
                  JOINT RightHand
                  {
                    OFFSET 0 13.6636 0
                    CHANNELS 3 Zrotation Xrotation Yrotation
                    End Site
                    {
                      OFFSET 0 0 0
                    }
                  }
                }
              }
            }
          }
        }
        JOINT LeftShoulder
        {
          OFFSET 3.57307 9.16386 -0.497525
          CHANNELS 3 Zrotation Xrotation Yrotation
          JOINT LeftArm
          {
            OFFSET 0 12.0192 0
            CHANNELS 3 Zrotation Xrotation Yrotation
            JOINT LeftArmRoll
            {
              OFFSET 0 6.06754 0
              CHANNELS 3 Zrotation Xrotation Yrotation
              JOINT LeftForeArm
              {
                OFFSET 0 17.6726 0
                CHANNELS 3 Zrotation Xrotation Yrotation
                JOINT LeftForeArmRoll
                {
                  OFFSET 0 6.80872 0
                  CHANNELS 3 Zrotation Xrotation Yrotation
                  JOINT LeftHand
                  {
                    OFFSET 0 13.6636 0
                    CHANNELS 3 Zrotation Xrotation Yrotation
                    End Site
                    {
                      OFFSET 0 0 0
                    }
                  }
                }
              }
            }
          }
        }
      }
    }
  }
  JOINT RightUpLeg
  {
    OFFSET -5.27774 -0.967797 -0.811858
    CHANNELS 3 Zrotation Xrotation Yrotation
    JOINT RightUpLegRoll
    {
      OFFSET 0 16.0214 0
      CHANNELS 3 Zrotation Xrotation Yrotation
      JOINT RightLeg
      {
        OFFSET 0 -19.8401 0
        CHANNELS 3 Zrotation Xrotation Yrotation
        JOINT RightLegRoll
        {
          OFFSET 0 19.905 0
          CHANNELS 3 Zrotation Xrotation Yrotation
          JOINT RightFoot
          {
            OFFSET 0 16.5675 0
            CHANNELS 3 Zrotation Xrotation Yrotation
            JOINT RightToeBase
            {
              OFFSET 0 13.8496 0
              CHANNELS 3 Zrotation Xrotation Yrotation
              End Site
              {
                OFFSET 0.00587034 6.70728 -0.773117
              }
            }
          }
        }
      }
    }
  }
  JOINT LeftUpLeg
  {
    OFFSET 5.27774 -0.967797 -0.811858
    CHANNELS 3 Zrotation Xrotation Yrotation
    JOINT LeftUpLegRoll
    {
      OFFSET 0 16.0215 0
      CHANNELS 3 Zrotation Xrotation Yrotation
      JOINT LeftLeg
      {
        OFFSET 0 19.84 0
        CHANNELS 3 Zrotation Xrotation Yrotation
        JOINT LeftLegRoll
        {
          OFFSET 0 20.089 0
          CHANNELS 3 Zrotation Xrotation Yrotation
          JOINT LeftFoot
          {
            OFFSET 0 16.3835 0
            CHANNELS 3 Zrotation Xrotation Yrotation
            JOINT LeftToeBase
            {
              OFFSET 0 13.8496 0
              CHANNELS 3 Zrotation Xrotation Yrotation
              End Site
              {
                OFFSET -0.0263083 6.70727 -0.773117
              }
            }
          }
        }
      }
    }
  }
}
MOTION
Frames: 13
Frame Time: 0.00208333
52.0937 84.215 5.82216 8.98476 -0.677462 79.394 -0.107053 -0.786071 0.0301094 -0.214123 2.43058 0.0681423 -0.215235 4.07565 0.0726895 -10.4237 4.95219 -0.904228 9.7404 1.81351 -3.12722 68.2333 4.06015 1.036 104.407 43.7926 -22.9527 4.77083e-015 -1.43125e-014 -0 -10.0061 76.5898 5.2038 -5.82969e-006 8.3823e-006 -2.99999 8.03005 -4.95095 0.697564 -67.4269 -6.60972 4.43584 -103.694 30.966 7.87244 2.38542e-015 1.09332e-014 4.77083e-015 3.64251 -0.0274038 1.9924 1.01353e-005 1.07655e-005 3.01161 -8.03009 -4.95141 -0.697628 177.839 -4.94055 3.20762 180 7.01482e-015 178.671 -179.969 12.1891 179.46 7.56188e-006 -6.46743e-007 0.176066 -18.8421 68.1063 19.6058 8.1365 25.2327 -3.48775 -179.385 1.78882 0.286949 4.54188e-006 -4.6773e-006 -1.12801 -1.82085 -12.8496 0.184578 5.314e-006 -2.06126e-007 -0.198914 19.6133 69.1348 -20.5396 -8.13646 25.2325 3.48769 
52.071 84.2051 5.81 9.00085 -0.650551 79.4821 -0.110972 -0.787669 0.0299572 -0.221967 2.42739 0.0685247 -0.223088 4.07245 0.073117 -10.4815 4.95514 -0.929069 9.78435 1.79854 -3.16418 68.2382 4.05258 1.03136 104.305 43.9328 -22.8649 4.77083e-015 4.77083e-015 6.36111e-015 -10.0788 76.7108 5.27861 -5.82969e-006 8.3823e-006 -2.99999 8.03005 -4.95095 0.697564 -67.4124 -6.62807 4.44504 -103.751 31.0152 7.9409 -7.15625e-015 -1.33186e-014 -1.11319e-014 3.64249 -0.0274038 1.9924 1.01353e-005 1.07655e-005 3.01161 -8.03009 -4.95141 -0.697628 177.841 -4.95743 3.20554 180 7.01482e-015 178.671 -179.959 12.2167 179.458 7.56188e-006 -6.46743e-007 0.177359 -18.851 68.1165 19.6153 8.1365 25.2327 -3.48775 -179.399 1.77378 0.293355 4.54188e-006 -4.6773e-006 -1.12808 -1.82192 -12.8309 0.184949 5.314e-006 -2.06126e-007 -0.197902 19.5958 69.1161 -20.5215 -8.13646 25.2325 3.48769 
52.0783 84.2041 5.82686 9.0168 -0.624552 79.5703 -0.114896 -0.789308 0.0298178 -0.229818 2.42411 0.0689401 -0.230951 4.06917 0.073573 -10.5381 4.95931 -0.953727 9.82731 1.78269 -3.20077 68.2449 4.04581 1.02687 104.206 44.0726 -22.7807 3.18055e-015 1.43125e-014 2.22639e-014 -10.1504 76.8272 5.35223 -5.82969e-006 8.3823e-006 -2.99999 8.03005 -4.95095 0.697564 -67.3978 -6.64635 4.45419 -103.806 31.0647 8.0087 -1.74931e-014 1.35174e-014 -3.33958e-014 3.64245 -0.0274038 1.9924 1.01353e-005 1.07655e-005 3.01161 -8.03009 -4.95141 -0.697628 177.844 -4.97385 3.20342 180 7.01482e-015 178.671 -179.95 12.245 179.456 7.56188e-006 -6.46743e-007 0.178673 -18.8601 68.1268 19.6251 8.1365 25.2327 -3.48775 -179.413 1.75798 0.299614 4.54188e-006 -4.6773e-006 -1.12818 -1.82308 -12.8111 0.185349 5.314e-006 -2.06126e-007 -0.196855 19.5777 69.0966 -20.5027 -8.13646 25.2325 3.48769 
52.1091 84.2222 5.86746 9.03264 -0.599284 79.6585 -0.118822 -0.790975 0.0296874 -0.237676 2.42077 0.0693786 -0.23882 4.06583 0.074049 -10.594 4.96434 -0.978256 9.86955 1.76623 -3.23712 68.2527 4.0396 1.02249 104.109 44.2121 -22.699 4.77083e-015 -4.77083e-015 1.27222e-014 -10.2215 76.9405 5.42534 -5.82969e-006 8.3823e-006 -2.99999 8.03005 -4.95095 0.697564 -67.3832 -6.66456 4.4633 -103.861 31.1144 8.07607 -1.03368e-014 4.77083e-015 -3.02153e-014 3.64241 -0.0274038 1.9924 1.01353e-005 1.07655e-005 3.01161 -8.03009 -4.95141 -0.697628 177.847 -4.98996 3.20125 180 7.01482e-015 178.671 -179.94 12.2737 179.453 7.56188e-006 -6.46743e-007 0.180003 -18.8694 68.1373 19.635 8.1365 25.2327 -3.48775 -179.427 1.74165 0.305771 4.54188e-006 -4.6773e-006 -1.1283 -1.82429 -12.7905 0.185771 5.314e-006 -2.06126e-007 -0.195783 19.5591 69.0767 -20.4834 -8.13646 25.2325 3.48769 
52.1021 84.2168 5.86711 9.04838 -0.574575 79.7467 -0.12275 -0.79266 0.0295622 -0.245538 2.4174 0.0698303 -0.246692 4.06246 0.0745364 -10.6495 4.96986 -1.00271 9.91138 1.74942 -3.27331 68.2612 4.03371 1.01817 104.012 44.3515 -22.6186 6.36111e-015 4.77083e-015 6.36111e-015 -10.2929 77.0519 5.49867 -5.82969e-006 8.3823e-006 -2.99999 8.03005 -4.95095 0.697564 -67.3686 -6.68274 4.4724 -103.916 31.1643 8.14322 -1.59028e-014 1.37161e-014 -4.13472e-014 3.64236 -0.0274038 1.9924 1.01353e-005 1.07655e-005 3.01161 -8.03009 -4.95141 -0.697628 177.849 -5.00589 3.19907 180 7.01482e-015 178.671 -179.931 12.3028 179.451 7.56188e-006 -6.46743e-007 0.181342 -18.8787 68.1478 19.645 8.1365 25.2327 -3.48775 -179.441 1.72501 0.311868 4.54188e-006 -4.6773e-006 -1.12843 -1.82554 -12.7693 0.186204 5.314e-006 -2.06126e-007 -0.194698 19.5403 69.0564 -20.4639 -8.13646 25.2325 3.48769 
52.1099 84.2173 5.86915 9.06405 -0.550253 79.835 -0.126679 -0.794348 0.0294383 -0.2534 2.41402 0.0702853 -0.254566 4.05908 0.0750266 -10.7049 4.9755 -1.02715 9.9531 1.73252 -3.30947 68.2698 4.02789 1.01386 103.916 44.4909 -22.5383 6.36111e-015 9.54166e-015 2.22639e-014 -10.3652 77.1629 5.573 -5.82969e-006 8.3823e-006 -2.99999 8.03005 -4.95095 0.697564 -67.354 -6.70091 4.4815 -103.971 31.2141 8.21037 -1.03368e-014 -1.98785e-015 -1.59028e-014 3.64231 -0.0274038 1.9924 1.01353e-005 1.07655e-005 3.01161 -8.03009 -4.95141 -0.697628 177.852 -5.02177 3.19687 180 7.01482e-015 178.671 -179.921 12.3318 179.449 7.56188e-006 -6.46743e-007 0.182683 -18.8881 68.1583 19.6551 8.1365 25.2327 -3.48775 -179.455 1.7083 0.317951 4.54188e-006 -4.6773e-006 -1.12857 -1.8268 -12.7481 0.186641 5.314e-006 -2.06126e-007 -0.193609 19.5214 69.0361 -20.4443 -8.13646 25.2325 3.48769 
52.1161 84.2257 5.88346 9.07966 -0.526157 79.9233 -0.130607 -0.796028 0.0293118 -0.26126 2.41066 0.0707337 -0.262437 4.05572 0.0755112 -10.7605 4.98089 -1.05162 9.99498 1.7158 -3.3457 68.2781 4.02192 1.00952 103.818 44.6305 -22.457 -1.59028e-015 1.11319e-014 -0 -10.4394 77.2748 5.64918 -5.82969e-006 8.3823e-006 -2.99999 8.03005 -4.95095 0.697564 -67.3394 -6.7191 4.4906 -104.026 31.2638 8.27775 -1.66979e-014 1.39149e-015 -3.81667e-014 3.64226 -0.0274038 1.9924 1.01353e-005 1.07655e-005 3.01161 -8.03009 -4.95141 -0.697628 177.855 -5.03774 3.19469 180 7.01482e-015 178.671 -179.912 12.3608 179.447 7.56188e-006 -6.46743e-007 0.184019 -18.8974 68.1688 19.6651 8.1365 25.2327 -3.48775 -179.469 1.69174 0.324063 4.54188e-006 -4.6773e-006 -1.1287 -1.82804 -12.7271 0.187071 5.314e-006 -2.06126e-007 -0.192527 19.5027 69.0159 -20.4249 -8.13646 25.2325 3.48769 
52.0924 84.2144 5.84986 9.09523 -0.50213 80.0118 -0.134533 -0.797687 0.0291788 -0.269116 2.40734 0.0711656 -0.270304 4.05239 0.0759814 -10.8167 4.98567 -1.07619 10.0373 1.69952 -3.38211 68.2856 4.01555 1.00511 103.718 44.7702 -22.3735 -6.53258e-030 2.94201e-014 1.27222e-014 -10.5164 77.3889 5.72811 -5.82969e-006 8.3823e-006 -2.99999 8.03005 -4.95095 0.697564 -67.3248 -6.73733 4.49973 -104.082 31.3132 8.34557 -7.95139e-016 -8.34896e-015 4.77083e-015 3.64221 -0.0274038 1.9924 1.01353e-005 1.07655e-005 3.01161 -8.03009 -4.95141 -0.697628 177.858 -5.05394 3.19254 180 7.01482e-015 178.671 -179.902 12.3894 179.445 7.56188e-006 -6.46743e-007 0.185345 -18.9067 68.1792 19.675 8.1365 25.2327 -3.48775 -179.483 1.67556 0.330248 4.54188e-006 -4.6773e-006 -1.12882 -1.82924 -12.7067 0.187486 5.314e-006 -2.06126e-007 -0.191463 19.4845 68.996 -20.406 -8.13646 25.2325 3.48769 
52.1076 84.1909 5.86779 9.11079 -0.47802 80.1003 -0.138455 -0.799314 0.0290356 -0.276965 2.40408 0.0715711 -0.278163 4.04914 0.0764289 -10.8736 4.98947 -1.10091 10.0805 1.68394 -3.41882 68.2917 4.00854 1.00058 103.614 44.9102 -22.2866 6.36111e-015 -7.95139e-016 6.36111e-015 -10.5971 77.5065 5.81076 -5.82969e-006 8.3823e-006 -2.99999 8.03005 -4.95095 0.697564 -67.3102 -6.75563 4.50891 -104.139 31.3623 8.41405 -1.82882e-014 -1.8487e-014 -2.8625e-014 3.64218 -0.0274038 1.9924 1.01353e-005 1.07655e-005 3.01161 -8.03009 -4.95141 -0.697628 177.86 -5.07051 3.19043 180 7.01482e-015 178.671 -179.892 12.4175 179.443 7.56188e-006 -6.46743e-007 0.186653 -18.9157 68.1895 19.6847 8.1365 25.2327 -3.48775 -179.498 1.65999 0.336551 4.54188e-006 -4.6773e-006 -1.12891 -1.83037 -12.6872 0.187877 5.314e-006 -2.06126e-007 -0.190426 19.4668 68.9768 -20.3876 -8.13646 25.2325 3.48769 
52.1403 84.1932 5.92052 9.12634 -0.453682 80.189 -0.142372 -0.800895 0.0288782 -0.284804 2.40092 0.0719403 -0.286013 4.04597 0.0768449 -10.9317 4.99191 -1.12582 10.1247 1.66932 -3.45592 68.296 4.00065 0.995878 103.507 45.0507 -22.195 6.36111e-015 3.89618e-014 1.27222e-014 -10.6826 77.629 5.89821 -5.82969e-006 8.3823e-006 -2.99999 8.03005 -4.95095 0.697564 -67.2957 -6.77401 4.51813 -104.197 31.411 8.48342 -1.27222e-014 -3.18055e-015 -3.33958e-014 3.64216 -0.0274038 1.9924 1.01353e-005 1.07655e-005 3.01161 -8.03009 -4.95141 -0.697628 177.863 -5.08757 3.18838 180 7.01482e-015 178.671 -179.883 12.4448 179.441 7.56188e-006 -6.46743e-007 0.187937 -18.9246 68.1996 19.6943 8.1365 25.2327 -3.48775 -179.512 1.64525 0.343015 4.54188e-006 -4.6773e-006 -1.12896 -1.83141 -12.669 0.188235 5.314e-006 -2.06126e-007 -0.189429 19.4498 68.9584 -20.3701 -8.13646 25.2325 3.48769 
52.1377 84.2127 5.91633 9.1419 -0.428976 80.2778 -0.146284 -0.802419 0.0287028 -0.292632 2.39787 0.0722633 -0.29385 4.04292 0.077221 -10.9913 4.99265 -1.151 10.1702 1.65593 -3.49352 68.298 3.99165 0.990964 103.393 45.1918 -22.0976 -6.36111e-015 4.77083e-015 -3.18055e-015 -10.7739 77.7578 5.99158 -5.82969e-006 8.3823e-006 -2.99999 8.03005 -4.95095 0.697564 -67.2812 -6.79251 4.52742 -104.256 31.4591 8.55388 -1.43125e-014 -1.07344e-014 -2.38542e-014 3.64216 -0.0274038 1.9924 1.01353e-005 1.07655e-005 3.01161 -8.03009 -4.95141 -0.697628 177.865 -5.10526 3.18641 180 7.01482e-015 178.671 -179.873 12.4713 179.439 7.56188e-006 -6.46743e-007 0.18919 -18.9332 68.2096 19.7035 8.1365 25.2327 -3.48775 -179.527 1.63158 0.349684 4.54188e-006 -4.6773e-006 -1.12897 -1.83232 -12.6525 0.188551 5.314e-006 -2.06126e-007 -0.18848 19.4339 68.941 -20.3537 -8.13646 25.2325 3.48769 
52.1346 84.2011 5.90246 9.15749 -0.403768 80.3668 -0.150188 -0.803874 0.0285055 -0.300445 2.39495 0.0725303 -0.301672 4.04001 0.0775485 -11.0526 4.99129 -1.17649 10.2174 1.64403 -3.53174 68.2971 3.98129 0.985792 103.274 45.3334 -21.9931 -1.41245e-030 -6.36111e-015 -1.27222e-014 -10.8725 77.8942 6.09213 -5.82969e-006 8.3823e-006 -2.99999 8.03005 -4.95095 0.697564 -67.2668 -6.81116 4.5368 -104.317 31.5065 8.62566 -3.97569e-015 2.18663e-014 -9.54166e-015 3.64218 -0.0274038 1.9924 1.01353e-005 1.07655e-005 3.01161 -8.03009 -4.95141 -0.697628 177.867 -5.12373 3.18453 180 7.01482e-015 178.671 -179.863 12.4965 179.437 7.56188e-006 -6.46743e-007 0.190407 -18.9414 68.2193 19.7124 8.1365 25.2327 -3.48775 -179.541 1.6192 0.356603 4.54188e-006 -4.6773e-006 -1.12892 -1.83309 -12.6379 0.188815 5.314e-006 -2.06126e-007 -0.187591 19.4192 68.925 -20.3385 -8.13646 25.2325 3.48769 
52.1409 84.1954 5.90644 9.17311 -0.377931 80.456 -0.154083 -0.805246 0.0282825 -0.30824 2.39221 0.0727312 -0.309476 4.03726 0.077819 -11.1161 4.98749 -1.20234 10.2666 1.63388 -3.57069 68.2929 3.96934 0.980317 103.146 45.4758 -21.8802 3.18055e-015 1.19271e-014 -1.27222e-014 -10.9795 78.0394 6.20125 -5.82969e-006 8.3823e-006 -2.99999 8.03005 -4.95095 0.697564 -67.2525 -6.82997 4.54627 -104.379 31.5531 8.69898 -7.95139e-016 2.38542e-015 3.18055e-015 3.64222 -0.0274038 1.9924 1.01353e-005 1.07655e-005 3.01161 -8.03009 -4.95141 -0.697628 177.869 -5.14311 3.18276 180 7.01482e-015 178.671 -179.854 12.5205 179.435 7.56188e-006 -6.46743e-007 0.19158 -18.9492 68.2288 19.7208 8.1365 25.2327 -3.48775 -179.557 1.60834 0.363815 4.54188e-006 -4.6773e-006 -1.12881 -1.83369 -12.6257 0.189019 5.314e-006 -2.06126e-007 -0.186772 19.4059 68.9104 -20.3248 -8.13646 25.2325 3.48769 
